# xmcd
#
# Track frame offsets: 
#        150
#        16077
#        30210
#        44905
#        57507
#        80545
#        98740
#        115300
#        135697
#        147902
#        163740
#        177432
#        195337
#        220162
#        235412
#        252680
#
# Disc length: 3581 seconds
#
# Revision: 4
# Processed by: cddbd v1.5.2PL0 Copyright (c) Steve Scherf et al.
# Submitted via: ExactAudioCopy v1.0b3
#
DISCID=e40dfb10
DTITLE=荒垣勉 - さとうきび畑
DYEAR=2001
DGENRE=Classical
TTITLE0=カーロ・ミオ・ベン
TTITLE1=オンブラ・マイ・フ
TTITLE2=主の祈り
TTITLE3=平城山
TTITLE4=さとうきび畑
TTITLE5=天使のパン
TTITLE6=プロメッサ(誓い)
TTITLE7=アヴェ・マリア
TTITLE8=神よ、あなたが私とともにおられれば
TTITLE9=初恋
TTITLE10=椰子の実
TTITLE11=荒城の月
TTITLE12=花(すべての人の心に花を)
TTITLE13=スティール・アウェイ
TTITLE14=アメイジング・グレース
TTITLE15=アヴェ・マリア
EXTD=
EXTT0=
EXTT1=
EXTT2=
EXTT3=
EXTT4=
EXTT5=
EXTT6=
EXTT7=
EXTT8=
EXTT9=
EXTT10=
EXTT11=
EXTT12=
EXTT13=
EXTT14=
EXTT15=
PLAYORDER=
